<svg width="527" height="127" viewBox="0 0 527 127" fill="none" xmlns="http://www.w3.org/2000/svg">
<path d="M115.388 17.1076C104.892 24.1682 92.6267 25.5629 48.3303 12.586C19.8395 4.23847 0.0348336 25.8029 8.85986e-05 54.2366C-0.0172839 68.3508 2.5191 82.0094 8.53693 93.8073C15.7257 107.887 45.5994 136.713 50.0676 112.06C68.4824 10.4991 72.3044 84.5833 91.7615 83.192C104.937 82.2494 107.744 -5.8481 138.667 116.234C147.079 149.447 191.097 90.8856 191.097 54.2366C191.097 40.6823 188.797 27.5489 183.203 16.1058C169.243 -12.4566 136.583 2.84722 115.388 17.1076Z" fill="url(#paint0_radial_1_2)"/>
<mask id="mask0_1_2" style="mask-type:alpha" maskUnits="userSpaceOnUse" x="0" y="0" width="192" height="127">
<path d="M115.388 17.1076C104.892 24.1682 92.6267 25.5629 48.3303 12.586C19.8395 4.23847 0.0348336 25.8029 8.85986e-05 54.2366C-0.0172839 68.3508 2.5191 82.0094 8.53693 93.8073C15.7257 107.887 45.5994 136.713 50.0676 112.06C68.4824 10.4991 72.3044 84.5833 91.7615 83.192C104.937 82.2494 107.744 -5.8481 138.667 116.234C147.079 149.447 191.097 90.8856 191.097 54.2366C191.097 40.6823 188.797 27.5489 183.203 16.1058C169.243 -12.4566 136.583 2.84722 115.388 17.1076Z" fill="white"/>
</mask>
<g mask="url(#mask0_1_2)">
<path d="M20.9368 120.06C20.9368 120.06 38.6568 59.5403 85.5625 107.886C126.193 149.763 180.416 92.9304 180.416 92.9304L176.942 145.45L92.5115 163.189H4.25925L20.9368 120.06Z" fill="url(#paint1_linear_1_2)"/>
<path d="M61.242 -10.7178C61.242 -10.7178 20.243 -10.7178 28.2343 45.6279C31.9381 71.7383 27.0912 101.567 -15.0857 111.605C-57.2626 121.642 -29.3346 -18.3349 -29.3346 -18.3349L78.962 -79.5848L61.242 -10.7178Z" fill="url(#paint2_radial_1_2)"/>
<path d="M95.615 -19.1938C95.615 -19.1938 91.4352 46.7655 132.316 45.3847C173.197 44.0073 191.105 61.1059 191.223 90.7013C191.341 120.297 245.956 29.8305 245.956 29.8305L174.021 -52.6673L95.615 -19.1938Z" fill="url(#paint3_radial_1_2)"/>
</g>
<circle cx="78.8275" cy="116.664" r="7.35718" fill="#E05500"/>
<circle cx="108.256" cy="116.664" r="7.35718" fill="#E05500"/>
<path d="M478.988 92.1119V33.9301H503.022C507.378 33.9301 511.138 34.7161 514.301 36.2881C517.482 37.8411 519.935 40.0759 521.658 42.9926C523.382 45.8903 524.244 49.3278 524.244 53.3051C524.244 57.3392 523.363 60.7672 521.602 63.5892C519.84 66.3922 517.34 68.5324 514.102 70.0097C510.863 71.468 507.028 72.1972 502.596 72.1972H487.397V61.1176H499.982C502.104 61.1176 503.874 60.843 505.295 60.2938C506.734 59.7256 507.823 58.8733 508.562 57.7369C509.301 56.5816 509.67 55.1044 509.67 53.3051C509.67 51.5059 509.301 50.0191 508.562 48.8449C507.823 47.6517 506.734 46.7616 505.295 46.1744C503.855 45.5684 502.085 45.2653 499.982 45.2653H493.051V92.1119H478.988ZM511.744 65.521L526.232 92.1119H510.891L496.687 65.521H511.744Z" fill="#201F1F"/>
<path d="M419.144 92.1119V33.9301H433.207V57.2824H456.133V33.9301H470.167V92.1119H456.133V68.7313H433.207V92.1119H419.144Z" fill="#201F1F"/>
<path d="M365.146 67.2256V92.112H351.254V48.4756H364.464V56.487H364.947C365.913 53.8165 367.56 51.7237 369.89 50.2085C372.22 48.6745 374.994 47.9074 378.214 47.9074C381.282 47.9074 383.943 48.5987 386.197 49.9813C388.47 51.3449 390.231 53.2578 391.481 55.7199C392.75 58.1631 393.375 61.0229 393.356 64.2995V92.112H379.464V67.0267C379.483 64.6025 378.867 62.7085 377.617 61.3449C376.386 59.9813 374.672 59.2995 372.475 59.2995C371.017 59.2995 369.729 59.6214 368.612 60.2654C367.513 60.8904 366.661 61.79 366.055 62.9642C365.468 64.1385 365.165 65.5589 365.146 67.2256Z" fill="#201F1F"/>
<path d="M323.448 92.9358C318.884 92.9358 314.944 92.0362 311.63 90.237C308.335 88.4188 305.797 85.8335 304.016 82.4813C302.255 79.1101 301.374 75.1044 301.374 70.4642C301.374 65.9566 302.265 62.0173 304.045 58.646C305.825 55.2559 308.335 52.6233 311.573 50.7483C314.812 48.8544 318.628 47.9074 323.022 47.9074C326.128 47.9074 328.969 48.3904 331.545 49.3563C334.121 50.3222 336.346 51.7521 338.221 53.646C340.096 55.54 341.554 57.879 342.596 60.6631C343.638 63.4282 344.158 66.6006 344.158 70.1801V73.646H306.232V65.5779H331.232C331.213 64.1006 330.863 62.7843 330.181 61.629C329.499 60.4737 328.562 59.5741 327.369 58.9301C326.194 58.2673 324.84 57.9358 323.306 57.9358C321.753 57.9358 320.361 58.2862 319.13 58.987C317.899 59.6688 316.924 60.6063 316.204 61.7995C315.484 62.9737 315.105 64.3089 315.068 65.8051V74.0154C315.068 75.7957 315.418 77.3582 316.119 78.7029C316.819 80.0286 317.814 81.0608 319.102 81.7995C320.39 82.5381 321.924 82.9074 323.704 82.9074C324.935 82.9074 326.052 82.737 327.056 82.396C328.06 82.0551 328.922 81.5532 329.641 80.8904C330.361 80.2275 330.901 79.4131 331.261 78.4472L344.016 78.8165C343.486 81.6763 342.321 84.1669 340.522 86.2881C338.742 88.3904 336.403 90.0286 333.505 91.2029C330.607 92.3582 327.255 92.9358 323.448 92.9358Z" fill="#201F1F"/>
<path d="M279.904 52.9358C279.582 51.7426 279.109 50.6915 278.484 49.7824C277.859 48.8544 277.092 48.0684 276.183 47.4244C275.274 46.7805 274.232 46.2976 273.058 45.9756C271.883 45.6347 270.596 45.4642 269.194 45.4642C266.372 45.4642 263.929 46.146 261.864 47.5097C259.819 48.8733 258.238 50.8619 257.12 53.4756C256.003 56.0703 255.444 59.2237 255.444 62.9358C255.444 66.6669 255.984 69.8487 257.063 72.4813C258.143 75.1138 259.705 77.1214 261.751 78.504C263.796 79.8866 266.277 80.5779 269.194 80.5779C271.77 80.5779 273.948 80.1612 275.728 79.3279C277.527 78.4756 278.891 77.2729 279.819 75.7199C280.747 74.1669 281.211 72.3392 281.211 70.2369L283.825 70.5494H269.677V60.2938H294.762V67.9926C294.762 73.201 293.654 77.6612 291.438 81.3733C289.241 85.0854 286.211 87.9358 282.347 89.9244C278.503 91.9131 274.08 92.9074 269.08 92.9074C263.531 92.9074 258.654 91.7048 254.45 89.2994C250.245 86.8941 246.969 83.4661 244.62 79.0154C242.272 74.5457 241.097 69.2426 241.097 63.1063C241.097 58.3335 241.808 54.1006 243.228 50.4074C244.649 46.6953 246.628 43.5513 249.166 40.9756C251.722 38.3998 254.677 36.4491 258.029 35.1233C261.4 33.7976 265.027 33.1347 268.91 33.1347C272.281 33.1347 275.416 33.6176 278.313 34.5835C281.23 35.5494 283.806 36.9131 286.041 38.6744C288.294 40.4358 290.122 42.5286 291.524 44.9529C292.925 47.3771 293.796 50.0381 294.137 52.9358H279.904Z" fill="#201F1F"/>
<defs>
<radialGradient id="paint0_radial_1_2" cx="0" cy="0" r="1" gradientUnits="userSpaceOnUse" gradientTransform="translate(95.5509 63.0352) rotate(-0.0175754) scale(170.62 170.799)">
<stop stop-color="#FF9900"/>
<stop offset="1" stop-color="#C41700"/>
</radialGradient>
<linearGradient id="paint1_linear_1_2" x1="-11.0911" y1="118.435" x2="227.786" y2="135.429" gradientUnits="userSpaceOnUse">
<stop stop-color="#FF9900"/>
<stop offset="1" stop-color="#C41700"/>
</linearGradient>
<radialGradient id="paint2_radial_1_2" cx="0" cy="0" r="1" gradientUnits="userSpaceOnUse" gradientTransform="translate(20.2818 16.2674) rotate(-0.0435159) scale(104.787 259.719)">
<stop stop-color="#FF9900"/>
<stop offset="1" stop-color="#C41700"/>
</radialGradient>
<radialGradient id="paint3_radial_1_2" cx="0" cy="0" r="1" gradientUnits="userSpaceOnUse" gradientTransform="translate(170.727 21.991) rotate(-0.026438) scale(134.339 202.293)">
<stop stop-color="#FF9900"/>
<stop offset="1" stop-color="#C41700"/>
</radialGradient>
</defs>
</svg>
